Coordinates
version=1
nRows=16
nColumns=63
inDegrees=yes

Units are S.I. units (second, meters, Newtons, ...)
If the header above contains a line with 'inDegrees', this indicates whether rotational values are in degrees (yes) or radians (no).

endheader
time	pelvis_tilt	pelvis_list	pelvis_rotation	pelvis_tx	pelvis_ty	pelvis_tz	hip_flexion_r	hip_adduction_r	hip_rotation_r	knee_angle_r	knee_angle_r_beta	ankle_angle_r	subtalar_angle_r	mtp_angle_r	hip_flexion_l	hip_adduction_l	hip_rotation_l	knee_angle_l	knee_angle_l_beta	ankle_angle_l	subtalar_angle_l	mtp_angle_l	L5_S1_Flex_Ext	L5_S1_Lat_Bending	L5_S1_axial_rotation	L4_L5_Flex_Ext	L4_L5_Lat_Bending	L4_L5_axial_rotation	L3_L4_Flex_Ext	L3_L4_Lat_Bending	L3_L4_axial_rotation	L2_L3_Flex_Ext	L2_L3_Lat_Bending	L2_L3_axial_rotation	L1_L2_Flex_Ext	L1_L2_Lat_Bending	L1_L2_axial_rotation	L1_T12_Flex_Ext	L1_T12_Lat_Bending	L1_T12_axial_rotation	Abs_r3	Abs_r2	Abs_r1	Abs_t1	Abs_t2	neck_flexion	neck_bending	neck_rotation	arm_flex_r	arm_add_r	arm_rot_r	elbow_flex_r	pro_sup_r	wrist_flex_r	wrist_dev_r	arm_flex_l	arm_add_l	arm_rot_l	elbow_flex_l	pro_sup_l	wrist_flex_l	wrist_dev_l
0.000000	-3.373972	-4.290647	97.006417	0.101521	0.985165	0.562710	4.204904	-4.070752	-3.269016	8.673301	0.151378	32.429927	6.125811	0.000000	6.697202	3.902724	10.800180	12.627372	0.220389	28.602178	-7.053790	0.000000	-0.031623	-0.324179	-0.285568	-0.058726	-0.431158	-0.303416	-0.051953	-0.788209	-0.303416	-0.036142	-0.788209	-0.249872	-0.029365	-0.661066	-0.232024	-0.018069	-0.502153	-0.214176	-0.225878	-3.667179	-1.588242	0.000000	0.000000	18.096374	7.718126	13.862757	15.841029	-10.909034	69.154090	51.291521	53.761157	4.754761	3.642165	4.396318	-11.941537	38.500240	58.473644	70.970739	6.202659	6.361943
0.016949	-3.393404	-4.071942	96.324444	0.101859	0.985886	0.560940	3.877934	-4.044259	-3.774494	8.411148	0.146802	32.959585	7.724395	0.000000	5.598886	3.930938	12.301909	10.991900	0.191845	27.739501	-9.418683	0.000000	-0.021429	-0.309391	-0.162040	-0.039796	-0.411489	-0.172168	-0.035206	-0.752252	-0.172168	-0.024491	-0.752252	-0.141785	-0.019899	-0.630909	-0.131658	-0.012245	-0.479246	-0.121530	-0.153066	-3.499887	-0.901220	0.000000	0.000000	17.376897	7.676232	14.853256	15.960317	-10.973050	69.468825	51.298746	52.567596	4.265522	2.842555	4.191654	-11.799156	38.540305	58.316556	69.991089	6.639561	6.255589
0.033898	-3.403309	-3.891410	95.734953	0.102195	0.986445	0.559528	3.670102	-4.030780	-4.222467	8.316553	0.145151	33.421205	9.120138	0.000000	4.753170	3.935800	13.299125	9.770717	0.170531	27.140761	-11.158165	0.000000	-0.014020	-0.296938	-0.054401	-0.026036	-0.394928	-0.057801	-0.023033	-0.721976	-0.057801	-0.016023	-0.721976	-0.047601	-0.013019	-0.605517	-0.044201	-0.008011	-0.459958	-0.040801	-0.100142	-3.359026	-0.302562	0.000000	0.000000	16.922632	7.619729	15.642925	15.995736	-11.076396	69.548962	51.471876	51.777941	3.967150	2.116531	4.015656	-11.711494	38.526637	58.304650	69.313421	7.231835	6.242223
0.050847	-3.404676	-3.745682	95.232449	0.102522	0.986857	0.558437	3.567181	-4.028878	-4.617238	8.368256	0.146054	33.819399	10.327199	0.000000	4.135140	3.920444	13.851916	8.921842	0.155716	26.777015	-12.339361	0.000000	-0.009028	-0.286601	0.038158	-0.016766	-0.381180	0.040543	-0.014832	-0.696842	0.040543	-0.010318	-0.696842	0.033389	-0.008384	-0.584437	0.031004	-0.005159	-0.443945	0.028619	-0.064488	-3.242090	0.212225	0.000000	0.000000	16.703006	7.551019	16.252977	15.957162	-11.214792	69.422486	51.792275	51.359990	3.837221	1.455805	3.864806	-11.675155	38.465716	58.424429	68.918442	7.955230	6.296655
0.067797	-3.398498	-3.631390	94.811443	0.102835	0.987139	0.557632	3.554943	-4.037114	-4.963111	8.544998	0.149138	34.158779	11.359735	0.000000	3.719882	3.888008	14.020369	8.403296	0.146665	26.619322	-13.029400	0.000000	-0.006088	-0.278157	0.116446	-0.011307	-0.369949	0.123724	-0.010002	-0.676312	0.123724	-0.006958	-0.676312	0.101890	-0.005654	-0.567219	0.094612	-0.003479	-0.430866	0.087335	-0.043488	-3.146573	0.647638	0.000000	0.000000	16.687448	7.472501	16.704626	15.854473	-11.383957	69.117380	52.241310	51.281544	3.853314	0.852092	3.735585	-11.686743	38.364020	58.662395	68.786862	8.785497	6.393690
0.084746	-3.385763	-3.545163	94.466440	0.103128	0.987306	0.557075	3.619159	-4.054051	-5.264388	8.825518	0.154034	34.443958	12.231904	0.000000	3.482481	3.841626	13.864570	8.173099	0.142647	26.638738	-13.295408	0.000000	-0.004834	-0.271386	0.181270	-0.008977	-0.360943	0.192600	-0.007941	-0.659847	0.192600	-0.005524	-0.659847	0.158612	-0.004488	-0.553410	0.147282	-0.002762	-0.420376	0.135953	-0.034526	-3.069969	1.008171	0.000000	0.000000	16.845383	7.386577	17.019087	15.697547	-11.579610	68.661628	52.800344	51.510402	3.993008	0.297103	3.624478	-11.742862	38.228029	59.005049	68.899390	9.698388	6.508137
0.101695	-3.367463	-3.483635	94.191951	0.103395	0.987374	0.556730	3.745602	-4.078250	-5.525372	9.188558	0.160371	34.679548	12.957866	0.000000	3.398024	3.784435	13.444608	8.189272	0.142930	26.806321	-13.204514	0.000000	-0.004898	-0.266064	0.233439	-0.009096	-0.353865	0.248029	-0.008047	-0.646909	0.248029	-0.005598	-0.646909	0.204259	-0.004548	-0.542558	0.189669	-0.002799	-0.412133	0.175080	-0.034986	-3.009772	1.298320	0.000000	0.000000	17.146242	7.295648	17.217574	15.496260	-11.797470	68.083215	53.450744	52.014364	4.233881	-0.217448	3.527966	-11.840115	38.064222	59.438895	69.236733	10.669652	6.614805
0.118644	-3.344587	-3.443435	93.982482	0.103631	0.987358	0.556560	3.920045	-4.108272	-5.750365	9.612857	0.167776	34.870161	13.551778	0.000000	3.441596	3.719571	12.820570	8.409834	0.146779	27.093127	-12.823843	0.000000	-0.005915	-0.261972	0.273761	-0.010985	-0.348422	0.290871	-0.009718	-0.636958	0.290871	-0.006760	-0.636958	0.239541	-0.005493	-0.534213	0.222431	-0.003380	-0.405794	0.205321	-0.042251	-2.963476	1.522579	0.000000	0.000000	17.559451	7.202113	17.321300	15.260491	-12.033258	67.410124	54.173873	52.761228	4.553511	-0.699848	3.442532	-11.975107	37.879078	59.950433	69.779601	11.675041	6.688500
0.135593	-3.318126	-3.421196	93.832542	0.103831	0.987275	0.556528	4.128258	-4.142681	-5.943671	10.077156	0.175880	35.020410	14.027798	0.000000	3.588283	3.650169	12.052542	8.792805	0.153463	27.470216	-12.220524	0.000000	-0.007519	-0.258887	0.303045	-0.013963	-0.344319	0.321985	-0.012352	-0.629457	0.321985	-0.008593	-0.629457	0.265164	-0.006982	-0.527922	0.246224	-0.004296	-0.401015	0.227283	-0.053705	-2.928577	1.685443	0.000000	0.000000	18.054438	7.108375	17.351479	15.000117	-12.282691	66.670338	54.951096	53.718796	4.929478	-1.158383	3.364659	-12.144441	37.679076	60.526167	70.508703	12.690304	6.704030
0.152542	-3.289070	-3.413548	93.736639	0.103988	0.987140	0.556599	4.356015	-4.180037	-6.109592	10.560195	0.184310	35.134908	14.400084	0.000000	3.813170	3.579366	11.200612	9.296207	0.162249	27.908643	-11.461683	0.000000	-0.009342	-0.256587	0.322097	-0.017350	-0.341261	0.342228	-0.015348	-0.623867	0.342228	-0.010677	-0.623867	0.281835	-0.008675	-0.523233	0.261704	-0.005338	-0.397454	0.241573	-0.066731	-2.902568	1.791407	0.000000	0.000000	18.600631	7.016834	17.329326	14.725015	-12.541490	65.891842	55.763779	54.854866	5.339358	-1.601342	3.290828	-12.344720	37.470694	61.152599	71.404747	13.691193	6.636204
0.169492	-3.258409	-3.417123	93.689281	0.104097	0.986968	0.556734	4.589086	-4.218903	-6.252431	11.040714	0.192697	35.218265	14.682795	0.000000	4.091344	3.510297	10.324867	9.878059	0.172405	28.379466	-10.614448	0.000000	-0.011020	-0.254853	0.331727	-0.020465	-0.338954	0.352460	-0.018104	-0.619648	0.352460	-0.012595	-0.619648	0.290261	-0.010233	-0.519695	0.269528	-0.006297	-0.394767	0.248795	-0.078714	-2.882943	1.844967	0.000000	0.000000	19.167458	6.929890	17.276055	14.445062	-12.805374	65.102620	56.593287	56.137239	5.760731	-2.037010	3.217522	-12.572550	37.260413	61.816229	72.448441	14.653459	6.459829
0.186441	-3.208150	-3.424308	93.682686	0.104118	0.986802	0.556817	4.797639	-4.236439	-6.413506	11.427460	0.199447	35.349093	15.010144	0.000000	4.357562	3.443495	9.734542	10.429948	0.182037	28.739193	-10.033828	0.000000	-0.011624	-0.250595	0.331264	-0.021586	-0.333292	0.351968	-0.019097	-0.609298	0.351968	-0.013285	-0.609298	0.289856	-0.010794	-0.511014	0.269152	-0.006642	-0.388172	0.248448	-0.083027	-2.834786	1.842393	0.000000	0.000000	19.771236	6.797557	17.182238	14.205952	-13.042624	64.376802	57.338863	57.744010	6.178070	-2.653927	3.144817	-12.796121	37.081035	62.446533	73.718679	15.474618	6.048122
0.203390	-3.177720	-3.433094	93.692421	0.104097	0.986633	0.556851	4.969555	-4.270573	-6.535362	11.776105	0.205532	35.437976	15.243093	0.000000	4.598814	3.401377	9.227345	10.918527	0.190564	29.082917	-9.481109	0.000000	-0.010359	-0.248289	0.328016	-0.019239	-0.330224	0.348517	-0.017020	-0.603689	0.348517	-0.011840	-0.603689	0.287014	-0.009620	-0.506310	0.266513	-0.005919	-0.384599	0.246012	-0.073996	-2.808690	1.824324	0.000000	0.000000	20.253945	6.708379	17.139211	13.974491	-13.267829	63.701344	58.052698	59.296029	6.541115	-3.211620	3.077295	-13.058796	36.920586	63.085470	75.109307	16.217927	5.425409
0.220339	-3.153840	-3.439176	93.754667	0.103974	0.986487	0.556810	5.075745	-4.300778	-6.600702	12.042405	0.210180	35.455372	15.310638	0.000000	4.815150	3.371340	8.838189	11.357060	0.198218	29.411265	-8.934476	0.000000	-0.007100	-0.246107	0.315562	-0.013185	-0.327322	0.335285	-0.011664	-0.598384	0.335285	-0.008114	-0.598384	0.276117	-0.006593	-0.501861	0.256394	-0.004057	-0.381219	0.236672	-0.050712	-2.784009	1.755063	0.000000	0.000000	20.570994	6.681624	17.198481	13.766601	-13.488341	63.111023	58.729920	60.842098	6.813055	-3.706267	3.007778	-13.347046	36.788589	63.714941	76.622943	16.817412	4.554902
0.237288	-3.143837	-3.441808	93.833062	0.103785	0.986369	0.556711	5.133057	-4.346644	-6.719365	12.244881	0.213713	35.445748	15.418945	0.000000	4.977203	3.370861	8.725934	11.696434	0.204141	29.627649	-8.672923	0.000000	-0.002339	-0.244689	0.300039	-0.004344	-0.325437	0.318792	-0.003843	-0.594937	0.318792	-0.002674	-0.594937	0.262535	-0.002172	-0.498970	0.243782	-0.001337	-0.379023	0.225030	-0.016710	-2.767972	1.668729	0.000000	0.000000	20.726797	6.690290	17.350951	13.618625	-13.715337	62.703847	59.371765	62.181656	6.976413	-4.173368	2.932739	-13.654513	36.683063	64.327823	78.111824	17.306668	3.463842
0.254237	-3.141459	-3.443580	93.929671	0.103545	0.986290	0.556543	5.138483	-4.393073	-6.835587	12.363921	0.215791	35.399385	15.484251	0.000000	5.086978	3.382527	8.759209	11.935778	0.208319	29.772565	-8.502972	0.000000	0.004270	-0.243560	0.280208	0.007929	-0.323935	0.297721	0.007014	-0.592192	0.297721	0.004880	-0.592192	0.245182	0.003965	-0.496668	0.227669	0.002440	-0.377275	0.210156	0.030497	-2.755200	1.558435	0.000000	0.000000	20.726789	6.720744	17.599393	13.526682	-13.948978	62.472948	59.973260	63.299712	7.028920	-4.627839	2.825266	-13.966161	36.572613	64.921477	79.568098	17.698295	2.173100
